<?xml version="1.0" encoding="iso-8859-1"?>
<!-- Uploaded to: SVG Repo, www.svgrepo.com, Generator: SVG Repo Mixer Tools -->
<svg version="1.1" id="Layer_1" xmlns="http://www.w3.org/2000/svg" xmlns:xlink="http://www.w3.org/1999/xlink" 
	 viewBox="0 0 512 512" xml:space="preserve">
<g>
	<path style="fill:#455A64;" d="M481.855,287.204c-4.479,0-8.293-3.42-8.704-7.961c-0.551-6.106-1.338-12.142-2.187-18.152
		c-0.674-4.785,2.659-9.212,7.445-9.885c4.759-0.7,9.203,2.668,9.876,7.445c0.892,6.307,1.715,12.623,2.292,19.027
		c0.429,4.811-3.114,9.063-7.926,9.5C482.38,287.195,482.118,287.204,481.855,287.204z"/>
	<path style="fill:#455A64;" d="M30.146,287.204c-0.262,0-0.525-0.009-0.796-0.035c-4.811-0.437-8.363-4.689-7.926-9.5
		c0.577-6.395,1.4-12.72,2.292-19.027c0.674-4.776,5.179-8.101,9.876-7.445c4.785,0.674,8.118,5.1,7.445,9.885
		c-0.849,6.019-1.636,12.046-2.187,18.152C38.439,283.783,34.625,287.204,30.146,287.204z"/>
	<path style="fill:#455A64;" d="M151.113,298.55c-0.018,0-0.026,0-0.035,0c-4.829-0.026-8.73-3.954-8.713-8.792
		c0.018-4.846,0.175-9.693,0.324-14.548l0.079-2.432c0.149-4.838,3.884-8.625,9.01-8.486c4.829,0.157,8.625,4.182,8.477,9.01
		l-0.079,2.449c-0.149,4.698-0.297,9.387-0.315,14.084C159.834,294.666,155.924,298.55,151.113,298.55z"/>
	<path style="fill:#455A64;" d="M360.889,298.55c-4.811,0-8.722-3.884-8.748-8.704c-0.026-4.776-0.184-9.561-0.332-14.338
		l-0.07-2.196c-0.149-4.829,3.639-8.87,8.468-9.019c5.021-0.166,8.862,3.648,9.019,8.477l0.07,2.178
		c0.158,4.934,0.315,9.876,0.341,14.81c0.026,4.829-3.867,8.765-8.704,8.792C360.924,298.55,360.906,298.55,360.889,298.55z"/>
</g>
<rect x="247.218" y="240.569" style="fill:#B0BEC5;" width="17.496" height="192.455"/>
<path style="fill:#2196F3;" d="M217.387,455.716c2.904,2.878,4.33,6.946,3.718,10.987c-0.402,2.651,0.42,5.45,2.467,7.497
	c3.412,3.412,8.958,3.412,12.37,0c1.706-1.706,2.563-3.77,2.563-6.01c0-9.255,0-31.51,0-43.923c0-4.829,3.919-8.739,8.748-8.739
	h17.496c4.829,0,8.748,3.919,8.748,8.748v43.74c0.122,11.679-4.435,22.815-12.816,31.195C252.152,507.74,240.954,512,229.757,512
	c-11.197,0-22.404-4.26-30.924-12.789c-12.475-12.466-15.825-30.662-10.051-46.207c3.263-8.783,14.784-10.979,21.441-4.391
	L217.387,455.716z"/>
<path style="fill:#039BE5;" d="M256.001,27.267c31.711,2.213,62.303,8.433,91.311,18.117c36.12,12.063,67.342,36.269,87.768,68.4
	c27.346,43.005,45.769,92.16,53.205,144.849c-42.821,1.47-85.546,6.062-127.816,13.787c-1.907-60.151-11.906-120.092-30.268-177.986
	c-6.578-20.759-20.759-38.43-39.742-49.102C279.183,38.981,267.688,32.962,256.001,27.267z"/>
<path style="fill:#4FC3F7;" d="M255.397,27.329c-31.493,2.248-61.883,8.433-90.699,18.056c-36.12,12.063-67.342,36.269-87.768,68.4
	c-27.346,43.005-45.769,92.16-53.205,144.849c42.821,1.47,85.537,6.062,127.808,13.787c1.89-60.23,11.88-120.258,30.277-178.231
	c6.587-20.759,20.759-38.43,39.742-49.102C232.626,38.85,243.92,32.936,255.397,27.329z"/>
<path style="fill:#29B6F6;" d="M360.469,272.429c-1.907-60.151-11.906-120.092-30.268-177.986
	c-6.578-20.759-20.759-38.43-39.742-49.102c-11.285-6.351-23.383-12.308-35.071-18.003c-11.477,5.599-22.771,11.521-33.855,17.758
	c-18.983,10.673-33.155,28.343-39.742,49.102c-18.388,57.981-28.387,118.001-30.277,178.231
	C219.513,264.459,292.488,264.468,360.469,272.429z"/>
<path style="fill:#78909C;" d="M269.123,28.422c0,5.1-26.244,5.118-26.244,0.017l3.237-21.021C246.772,3.149,250.446,0,254.758,0
	h2.484c4.321,0,7.987,3.149,8.643,7.418L269.123,28.422z"/>
</svg>